<svg xmlns="http://www.w3.org/2000/svg" width="15.384" height="10.635" viewBox="0 0 15.384 10.635"><g fill="@@fill"><path d="M7.615 10.635L0 6.685 3.225 5.52 7.62 7.796l4.57-2.32 3.194 1.216-7.77 3.943zM1.445 6.78L7.62 9.977l6.33-3.212-1.724-.654-4.61 2.34L3.182 6.15l-1.734.63z"/><path d="M7.615 8.45L0 4.503l3.225-1.168 4.394 2.28 4.57-2.32 3.194 1.214-7.77 3.943zm-6.17-3.855l6.173 3.2 6.33-3.212-1.724-.654-4.61 2.34-4.433-2.302-1.734.627z"/></g><path fill="@@fill" d="M8.95 1.314V.166H6.64V1.31l-2.95-.007L7.668 5.26l4.084-3.937"/></svg>