<svg xmlns="http://www.w3.org/2000/svg" width="11.854" height="8.192" viewBox="0 0 11.854 8.192"><g fill="@@fill"><path d="M9.445-.002l.7.713L2.54 8.194l-.702-.713z"/><path d="M4.193 6.55c-1.235-.4-2.32-1.21-3.037-2.33C2.18 2.578 3.98 1.568 5.926 1.568c.924 0 1.812.233 2.603.647l.738-.74C8.27.893 7.122.568 5.928.568c-2.404 0-4.623 1.31-5.79 3.415L0 4.23l.14.244c.75 1.31 1.914 2.305 3.27 2.86l.783-.784zM11.718 3.982c-.403-.727-.94-1.347-1.557-1.862l-.71.71c.48.39.91.85 1.248 1.39-1.04 1.62-2.842 2.616-4.77 2.616-.158 0-.313-.015-.468-.03l-.878.875c.44.094.887.156 1.345.156 2.382 0 4.6-1.288 5.788-3.362l.14-.245-.137-.248z"/><path d="M4.582 6.195l.735-.733c-.48-.23-.817-.717-.817-1.285 0-.787.64-1.428 1.427-1.428.57 0 1.06.337 1.288.82l.734-.73c-.437-.657-1.18-1.09-2.023-1.09-1.34 0-2.427 1.088-2.427 2.427 0 .84.43 1.582 1.082 2.018zM5.687 6.58c.08.008.158.024.24.024 1.34 0 2.428-1.09 2.428-2.428 0-.08-.016-.154-.023-.232L5.687 6.58z"/></g></svg>