<svg xmlns="http://www.w3.org/2000/svg" width="13.164" height="13.014" viewBox="0 0 13.164 13.014"><g fill="@@fill"><path d="M10.658 13.014H2.506L0 4.978 6.583 0l6.582 4.988-2.507 8.026zm-7.416-1h6.68L12 5.36 6.582 1.255 1.164 5.35l2.078 6.664z"/><path d="M6.08.492l1 .013-.085 6.282-1-.014z"/><path d="M12.454 4.683l.256.966-6.088 1.61-.256-.966z"/><path d="M6.91 6.503l3.796 5.72-.833.552-3.796-5.72z"/><path d="M6.072 6.513l.845.535-3.622 5.717-.845-.535z"/><path d="M.715 4.674l5.912 1.623-.265.964L.45 5.64z"/></g></svg>