<svg xmlns="http://www.w3.org/2000/svg" width="7.389" height="8" viewBox="0 0 7.389 8"><g fill-rule="evenodd" clip-rule="evenodd" fill="#1A1A1A"><path d="M.2 8c-.16-.098-.2-.244-.2-.424C.004 5.19.002 2.806.004.42.004.083.09 0 .43 0h4.375c.35 0 .443.093.45.443 0 .406-.015.813.002 1.218.013.278-.178.206-.313.2-.13-.005-.335.097-.32-.19.016-.28-.007-.562.007-.843.01-.17-.053-.207-.21-.205-1.2.005-2.4.005-3.594 0C.674.62.633.664.633.81.64 2.94.64 5.065.633 7.19c0 .15.044.188.194.188 1.196-.006 2.396-.006 3.593 0 .162 0 .22-.04.21-.208-.013-.27.016-.543-.007-.81-.024-.294.17-.218.322-.224.165-.007.328-.04.313.237-.023.384-.012.77 0 1.154.005.19-.05.344-.184.473H.2z"/><path d="M7.39 4c-.003.38-.097.48-.476.5-.87.04-1.743.093-2.616.112-.26.005-.32.098-.285.32.007.043.007.085 0 .126-.024.155.08.358-.124.446-.174.078-.286-.083-.407-.17C3.04 5 2.653 4.61 2.28 4.203c-.133-.147-.13-.27-.007-.407.418-.45.85-.89 1.355-1.238.235-.162.363-.092.386.187.016.204-.1.48.054.59.14.103.4.04.607.048.746.03 1.495.052 2.243.09.384.02.47.137.47.525z"/></g></svg>