<svg xmlns="http://www.w3.org/2000/svg" width="12.286" height="8.365" viewBox="0 0 12.286 8.365"><path fill-rule="evenodd" clip-rule="evenodd" fill="@@fill" d="M.493 2.883h5.703c.27 0 .494.222.494.494V7.77c0 .27-.222.493-.494.493H.493C.223 8.263 0 8.04 0 7.77V3.377c0-.273.222-.494.493-.494z"/><path fill-rule="evenodd" clip-rule="evenodd" fill="@@fill" d="M6.46 4.48l1.78-.346c.26-.05.484.22.484.485v1.905c0 .267-.224.536-.485.485l-1.78-.344V4.48zM1.76 0c.865 0 1.565.7 1.565 1.564 0 .865-.7 1.566-1.565 1.566S.194 2.43.194 1.564C.194.7.894 0 1.76 0z"/><path fill-rule="evenodd" clip-rule="evenodd" fill="@@fill" d="M4.752 0c.865 0 1.566.7 1.566 1.564 0 .865-.7 1.566-1.566 1.566s-1.565-.7-1.565-1.566C3.187.7 3.887 0 4.752 0z"/><path fill="none" stroke="@@fill" stroke-miterlimit="10" d="M9.24 4.425l2.546-.89V7.68L9.12 6.83"/></svg>