<svg xmlns="http://www.w3.org/2000/svg" width="12" height="11.03" viewBox="0 0 12 11.03"><g fill="@@fill"><path d="M9.904 6.114H12m-2.096-.22H12v.44H9.904z"/><path fill-rule="evenodd" clip-rule="evenodd" d="M6 3.138c1.612 0 2.802 1.27 2.802 2.976 0 1.704-1.308 2.555-1.31 2.556-.125.09-.205.238-.205.406v1.688c0 .147-.577.267-1.286.267-.71 0-1.283-.117-1.283-.265v-1.69c0-.167-.082-.315-.207-.406-.004-.003-1.312-.854-1.312-2.558 0-1.707 1.19-2.975 2.802-2.975z"/><path d="M6 2.135V0m-.217 0h.434v2.135h-.434zm2.914 3.365l1.26-1.283M8.85 3.52l-.306-.31 1.26-1.283.305.31M8.697 8.864l1.26 1.282m-.154.157L8.544 9.02l.308-.313L10.11 9.99M3.3 8.863l-1.257 1.283m.154.156L1.89 9.99l1.26-1.283.308.312M2.095 6.114H0m0-.22h2.095v.44H0zM3.303 3.365l-1.26-1.282M3.15 3.52L1.89 2.24l.307-.31 1.26 1.282"/></g></svg>