<svg xmlns="http://www.w3.org/2000/svg" width="14" height="14.088" viewBox="51.973 0.012 14 14.088"><path fill="#999" d="M65.973 8.325V5.788l-1.575-.26c-.088-.354-.263-.704-.525-1.227l.966-1.313-1.846-1.834-1.31.965c-.435-.265-.876-.44-1.226-.53L60.285.01h-2.54l-.264 1.575c-.437.09-.79.265-1.224.528l-1.31-.962-1.84 1.837.878 1.316c-.264.437-.352.786-.522 1.227l-1.49.172V8.24l1.574.263c.088.44.26.788.522 1.226l-.873 1.31 1.836 1.84 1.316-.88c.346.175.787.35 1.225.524l.267 1.576h2.62l.263-1.574c.436-.086.786-.262 1.225-.525l1.31.965 1.84-1.836-.963-1.315c.263-.436.437-.873.527-1.225l1.31-.264zm-7 1.313c-1.49 0-2.624-1.14-2.624-2.625s1.133-2.625 2.62-2.625 2.625 1.14 2.625 2.625c0 1.486-1.137 2.625-2.624 2.625z"/></svg>