<svg xmlns="http://www.w3.org/2000/svg" width="15" height="15" viewBox="0 0 15 15"><g fill="@@fill"><path d="M7.61 10c-.554 0-1-.447-1-1V1c0-.553.446-1 1-1s1 .447 1 1v8c0 .553-.448 1-1 1z"/><path d="M1 15c-.287 0-.573-.124-.77-.363-.353-.426-.292-1.057.134-1.408L6.91 7.825c.425-.35 1.056-.29 1.406.135.352.427.292 1.058-.134 1.41L1.637 14.77C1.45 14.925 1.225 15 1 15z"/><path d="M14 14.928c-.225 0-.45-.075-.637-.23L6.908 9.37c-.426-.352-.486-.982-.135-1.408.352-.425.982-.484 1.408-.135l6.456 5.33c.426.354.486.983.135 1.41-.197.24-.483.363-.77.363z"/></g></svg>