<svg xmlns="http://www.w3.org/2000/svg" width="12.5" height="12.5" viewBox="0 0 12.5 12.5"><g fill="@@fill"><path d="M9.215 3.525H.49c-.098 0-.186-.06-.222-.147-.037-.09-.018-.193.053-.263L3.117.32c.046-.045.105-.07.17-.07h8.725c.1 0 .187.06.223.148.037.09.018.192-.052.262L9.386 3.455c-.045.045-.106.07-.17.07zm-8.146-.48h8.045L11.43.73H3.383L1.07 3.046z"/><path d="M9.215 3.775H.49c-.2 0-.378-.12-.453-.303-.076-.185-.033-.395.108-.535L2.938.144C3.033.05 3.156 0 3.285 0h8.725c.2 0 .38.12.454.305.076.18.034.39-.107.532L9.562 3.632c-.09.09-.218.143-.347.143zm-7.543-.98h7.34L10.825.98H3.488L1.672 2.796z"/><path d="M9.215 12.25H.49c-.134 0-.24-.107-.24-.24V3.285c0-.134.106-.24.24-.24h8.726c.132 0 .24.106.24.24v8.725c0 .133-.11.24-.24.24zM.73 11.77h8.245V3.526H.73v8.246z"/><path d="M9.215 12.5H.49c-.27 0-.49-.22-.49-.49V3.285c0-.27.22-.49.49-.49h8.725c.27 0 .49.22.49.49v8.725c0 .27-.22.49-.49.49zM.98 11.52h7.745V3.776H.98v7.746z"/><path d="M9.215 12.25c-.03 0-.063-.006-.09-.018-.092-.037-.15-.125-.15-.223V3.283c0-.064.025-.124.07-.17L11.84.32c.07-.068.173-.09.262-.05.09.035.147.123.147.22v8.726c0 .063-.026.124-.07.17L9.383 12.18c-.045.046-.108.07-.17.07zm.24-8.865v8.046L11.77 9.12V1.07L9.454 3.385z"/><path d="M9.215 12.5c-.064 0-.128-.013-.187-.037-.184-.075-.304-.253-.304-.454V3.283c0-.13.05-.25.142-.345L11.662.142c.144-.14.358-.18.538-.104.18.072.3.25.3.45v8.725c0 .13-.05.254-.144.347l-2.794 2.794c-.088.09-.216.143-.347.143zm.49-9.012v7.34l1.814-1.815v-7.34L9.704 3.49z"/></g></svg>