<svg xmlns="http://www.w3.org/2000/svg" width="11.854" height="7.27" viewBox="0 0 11.854 7.27"><g fill="@@fill"><path d="M5.927 6.183c-1.418 0-2.572-1.154-2.572-2.573 0-1.418 1.154-2.572 2.572-2.572 1.42 0 2.573 1.154 2.573 2.572 0 1.418-1.154 2.573-2.573 2.573zm0-4.146c-.867 0-1.572.705-1.572 1.572S5.06 5.18 5.927 5.18 7.5 4.477 7.5 3.61s-.706-1.573-1.573-1.573z"/><path d="M5.927 7.27c-2.382 0-4.6-1.29-5.786-3.363L0 3.662l.137-.246C1.304 1.31 3.522 0 5.927 0c2.403 0 4.623 1.31 5.79 3.416l.138.246-.14.244C10.525 5.98 8.308 7.27 5.925 7.27zm-4.77-3.616c1.038 1.62 2.84 2.616 4.77 2.616 1.93 0 3.73-.995 4.77-2.615C9.677 2.01 7.873 1 5.927 1S2.18 2.01 1.158 3.654z"/></g></svg>