<svg xmlns="http://www.w3.org/2000/svg" width="15" height="15" viewBox="0 0 15 15"><path fill-rule="evenodd" clip-rule="evenodd" fill="@@fill" d="M9.082 15V9.088c.69.692 1.357 1.365 2.025 2.038 1.757-1.656 2.19-4.795.242-7.018-1.943-2.216-5.386-2.336-7.464-.248-1.15 1.156-1.65 2.563-1.482 4.184.17 1.624.986 2.868 2.316 3.78L3.023 13.51c-.488-.36-.938-.786-1.333-1.273C.71 11.03.15 9.647.025 8.094.02 8.054.01 8.01 0 7.97v-.94c.03-.245.055-.492.096-.738.34-1.965 1.304-3.56 2.885-4.775C3.94.78 5.03.31 6.224.11c.268-.045.54-.074.81-.11h.937c.032.007.063.02.098.022 1.132.082 2.194.396 3.17.98 1.995 1.185 3.218 2.918 3.647 5.203.052.275.078.553.115.826v.94c-.008.036-.02.075-.025.11-.146 1.797-.854 3.34-2.09 4.64-.026.027-.048.06-.074.09.72.72 1.43 1.43 2.143 2.14.012.013.03.015.05.02-.04.01-.08.03-.118.03H9.082z"/></svg>