<svg xmlns="http://www.w3.org/2000/svg" width="13" height="12.237" viewBox="0 0 13 12.237"><g fill="@@fill"><path d="M3.637 12.21c-.927 0-1.94-.244-2.67-.855C.298 10.793-.035 10 .004 9.06c.107-2.594 2.613-3.795 2.72-3.845l.424.905c-.02.01-2.063 1-2.145 2.983-.026.626.178 1.126.608 1.486.755.633 2.012.72 2.86.533 1.61-.354 3.042-1.583 3.926-3.37.446-.9.536-1.79.537-1.8l.996.093c-.006.044-.106 1.078-.637 2.15-1.02 2.06-2.7 3.483-4.606 3.903-.32.07-.678.11-1.05.11z"/><path d="M9.567 12.24c-1.502 0-2.696-.783-2.766-.83l.556-.83c.02.012 1.923 1.247 3.662.292.55-.3.87-.735.958-1.29.15-.974-.424-2.096-1.023-2.725-1.138-1.194-2.93-1.78-4.914-1.616-1.002.085-1.81.47-1.82.474l-.436-.9c.04-.02.978-.468 2.17-.568 2.292-.2 4.375.508 5.722 1.923.788.827 1.49 2.25 1.287 3.567-.134.864-.64 1.56-1.464 2.013-.66.36-1.322.49-1.933.49z"/><path d="M6.05 10.618c-.037-.022-.925-.564-1.66-1.51C2.984 7.292 2.437 5.16 2.89 3.262 3.154 2.15 3.966.782 5.18.24c.8-.357 1.66-.313 2.486.132 2.29 1.23 2.276 4.007 2.274 4.124l-1-.013c0-.022 0-2.293-1.748-3.23C6.642.956 6.102.92 5.59 1.15c-.9.405-1.527 1.498-1.73 2.344-.38 1.603.1 3.426 1.32 5 .622.8 1.38 1.264 1.388 1.27l-.517.854z"/></g></svg>